<?xml version="1.0" standalone="no"?>
<!DOCTYPE svg PUBLIC "-//W3C//DTD SVG 20010904//EN"
 "http://www.w3.org/TR/2001/REC-SVG-20010904/DTD/svg10.dtd">
<svg version="1.0" xmlns="http://www.w3.org/2000/svg"
 width="342.000000pt" height="342.000000pt" viewBox="0 0 342.000000 342.000000"
 preserveAspectRatio="xMidYMid meet">
<metadata>
Created by potrace 1.11, written by Peter Selinger 2001-2013
</metadata>
<g transform="translate(0.000000,342.000000) scale(0.100000,-0.100000)"
fill="#000000" stroke="none">
<path d="M1350 3302 c-114 -38 -215 -100 -330 -204 -62 -55 -134 -130 -161
-167 -51 -69 -102 -178 -126 -271 -8 -30 -25 -73 -38 -95 -38 -65 -55 -150
-62 -300 -6 -140 6 -330 31 -498 l12 -85 -42 -7 c-77 -11 -124 -88 -124 -203
0 -161 86 -430 158 -495 29 -26 85 -33 105 -12 16 15 18 15 26 -7 93 -238 152
-339 305 -515 168 -194 281 -292 384 -332 117 -46 324 -47 443 -2 114 44 251
165 430 380 103 123 160 217 225 367 46 107 49 111 71 101 36 -16 83 3 119 50
31 41 82 167 110 273 21 79 29 226 15 278 -15 52 -62 108 -98 115 l-28 5 3
373 c2 271 0 385 -9 417 -19 68 -86 135 -187 184 -74 37 -106 62 -236 188
-290 279 -422 374 -616 446 -100 36 -293 45 -380 16z m755 -787 c77 -13 175
-27 218 -31 69 -6 80 -10 95 -32 20 -31 41 -146 42 -232 1 -158 58 -298 132
-322 15 -5 25 -167 32 -473 4 -227 3 -257 -15 -328 -39 -153 -124 -339 -217
-472 -100 -143 -284 -337 -387 -407 -95 -64 -154 -81 -285 -82 -196 -1 -295
47 -468 228 -247 260 -398 528 -452 804 -11 54 -11 65 3 80 14 15 15 44 7 247
-5 127 -6 268 -3 315 5 80 8 86 38 112 51 43 73 109 86 255 13 164 15 170 40
178 12 4 57 40 100 80 57 53 94 79 136 95 58 22 64 22 163 1 116 -25 329 -4
416 42 24 13 35 11 103 -10 42 -14 139 -35 216 -48z m-1438 -901 c15 -4 22
-15 25 -38 l4 -33 -34 14 c-57 24 -74 -7 -18 -33 57 -28 79 -135 51 -247 -6
-21 -2 -36 13 -57 31 -41 55 -153 40 -185 -18 -40 -40 -26 -80 51 -48 92 -88
229 -95 330 -7 101 1 149 32 180 26 26 29 27 62 18z m2148 -18 c31 -31 39 -79
32 -180 -7 -101 -47 -238 -95 -330 -39 -75 -62 -91 -78 -55 -11 23 8 137 27
169 31 51 33 61 20 96 -11 30 -10 49 5 124 17 84 20 89 52 104 38 18 38 42 0
38 -22 -2 -24 1 -20 28 5 36 24 39 57 6z"/>
<path d="M1120 1889 c-61 -31 -183 -151 -178 -175 6 -31 41 -27 94 10 27 20
65 43 84 52 51 25 172 29 265 10 42 -9 103 -16 135 -16 56 0 58 1 69 31 13 38
-6 83 -41 94 -13 4 -104 9 -203 12 -172 4 -182 3 -225 -18z"/>
<path d="M1960 1904 c-14 -3 -44 -7 -68 -10 -37 -5 -45 -10 -59 -39 -13 -28
-14 -39 -5 -60 10 -23 17 -25 71 -25 33 0 95 7 138 15 160 31 239 16 347 -62
32 -24 61 -43 65 -43 12 0 31 23 31 37 0 35 -143 159 -209 181 -31 11 -250 15
-311 6z"/>
<path d="M1165 1620 c-70 -24 -93 -41 -129 -99 l-27 -43 38 -34 c21 -19 58
-47 83 -62 42 -25 52 -27 160 -27 106 0 120 2 175 29 33 15 72 32 86 36 l26 8
-1 -87 c-1 -79 1 -86 19 -86 17 0 21 11 31 90 7 50 15 111 19 138 7 44 6 47
-15 47 -13 0 -24 -8 -27 -20 -7 -25 -20 -26 -28 0 -9 28 -73 76 -134 99 -79
32 -201 36 -276 11z m39 -57 c-16 -38 -16 -110 1 -137 l17 -25 -31 9 c-42 12
-85 39 -100 63 -18 28 2 61 53 87 52 25 71 26 60 3z m154 -26 c2 -12 -3 -17
-17 -17 -15 0 -21 6 -21 21 0 25 33 22 38 -4z m129 -4 c12 -8 28 -25 36 -37
15 -22 14 -23 -39 -49 -62 -31 -83 -35 -64 -12 8 10 11 35 8 70 -4 52 -4 55
16 49 12 -4 31 -13 43 -21z"/>
<path d="M2050 1630 c-89 -16 -178 -68 -205 -119 l-13 -26 -11 28 c-12 31 -37
45 -52 30 -7 -7 -5 -28 6 -64 9 -30 20 -92 23 -139 6 -72 10 -85 26 -88 30 -6
35 9 28 94 l-8 81 26 -7 c14 -5 52 -21 85 -36 55 -27 69 -29 175 -29 108 0
118 2 160 27 25 15 62 43 84 61 l38 34 -25 39 c-32 51 -53 69 -107 93 -53 22
-166 33 -230 21z m230 -75 c14 -7 34 -22 44 -34 16 -18 17 -25 7 -44 -14 -26
-57 -54 -102 -67 l-31 -9 17 25 c17 27 17 99 0 138 -7 16 -5 17 16 11 13 -4
35 -13 49 -20z m-288 -50 c-3 -35 0 -60 8 -70 19 -23 -2 -19 -64 12 l-55 27
19 26 c16 23 71 59 91 60 3 0 4 -25 1 -55z m166 32 c2 -12 -3 -17 -17 -17 -15
0 -21 6 -21 21 0 25 33 22 38 -4z"/>
<path d="M1200 1299 c0 -19 136 -23 194 -6 35 11 27 12 -77 12 -65 0 -117 -3
-117 -6z"/>
<path d="M2026 1293 c44 -13 102 -16 157 -7 68 12 38 19 -80 19 -104 0 -112
-1 -77 -12z"/>
<path d="M946 1125 c9 -60 68 -165 121 -216 l47 -44 -46 55 c-59 73 -87 120
-110 188 -16 49 -18 51 -12 17z"/>
<path d="M2476 1125 c-10 -50 -60 -140 -113 -205 l-47 -55 47 44 c51 49 111
154 122 214 4 20 5 37 2 37 -3 0 -8 -16 -11 -35z"/>
<path d="M1485 1068 c-24 -29 -27 -38 -23 -90 3 -42 10 -62 24 -73 33 -26 63
-29 85 -9 19 17 20 17 47 -8 64 -60 111 -63 177 -12 44 33 48 34 65 19 16 -15
22 -15 46 -3 15 7 36 24 46 38 38 52 -4 170 -62 170 -26 0 -27 -31 0 -55 14
-13 20 -31 20 -62 0 -48 -5 -51 -48 -26 -30 17 -30 17 -71 -20 -57 -51 -103
-52 -152 -1 -28 29 -39 34 -64 30 -16 -4 -32 -11 -36 -17 -12 -21 -29 2 -29
38 0 24 8 45 21 59 23 24 20 54 -5 54 -8 0 -26 -14 -41 -32z"/>
<path d="M1348 669 c-48 -25 -51 -31 -32 -68 16 -33 24 -37 40 -22 5 6 40 -6
93 -32 l84 -42 143 -4 c165 -4 257 12 341 58 29 16 55 25 59 20 9 -15 31 -10
37 9 2 9 8 24 11 33 9 21 -71 76 -87 60 -7 -7 -6 -15 2 -25 11 -13 7 -16 -24
-22 -20 -3 -64 -1 -97 6 -65 12 -86 13 -354 6 -163 -5 -172 -4 -167 13 7 28
-8 31 -49 10z"/>
</g>
</svg>
